<svg width="40" height="40" viewBox="0 0 40 40" fill="none" xmlns="http://www.w3.org/2000/svg">
    <path d="M20.0003 36.6663C10.7953 36.6663 3.33367 29.2047 3.33367 19.9997C3.33367 10.7947 10.7953 3.33301 20.0003 3.33301C29.2053 3.33301 36.6669 10.7947 36.6669 19.9997C36.6669 29.2047 29.2053 36.6663 20.0003 36.6663Z" fill="#A5A5A5"/>
    <path d="M17.8998 27.1336C18.2165 27.1336 18.5331 27.0169 18.7831 26.7669L24.6665 20.8836C24.8989 20.6484 25.0293 20.331 25.0293 20.0003C25.0293 19.6695 24.8989 19.3522 24.6665 19.1169L18.7831 13.2336C18.2998 12.7503 17.4998 12.7503 17.0165 13.2336C16.5331 13.7169 16.5331 14.5169 17.0165 15.0003L22.0165 20.0003L17.0165 25.0003C16.5331 25.4836 16.5331 26.2836 17.0165 26.7669C17.1301 26.8861 17.2673 26.9803 17.4194 27.0435C17.5715 27.1066 17.7351 27.1373 17.8998 27.1336Z" fill="#F5F5F5"/>
</svg>
