<svg width="25" height="28" viewBox="0 0 25 28" fill="none" xmlns="http://www.w3.org/2000/svg">
<path d="M24.5 8.15458V11.7232H22.9312V8.78891C22.9312 8.37762 22.7188 7.99634 22.3713 7.78012L22.3702 7.77944C22.3593 7.77262 22.3484 7.76614 22.3372 7.75966L21.4511 7.24811L18.3518 5.4587L17.2186 4.80425L17.2179 4.80459L16.2817 4.26439C15.9141 4.05193 15.4609 4.05193 15.0932 4.26439L14.0868 4.84552L12.5181 5.75096L6.71912 9.09925V7.28767L10.9493 4.84552L12.5181 3.93973L14.1189 3.01552L14.1196 3.01518L13.0941 2.42314C13.0845 2.41769 13.075 2.41223 13.0651 2.40746L13.0593 2.40405C12.6981 2.21136 12.262 2.2175 11.9056 2.42314L10.8985 3.00461L10.8924 3.0012L6.71912 5.41061L5.8164 5.93171C5.78195 5.95149 5.74853 5.97332 5.71681 5.99617C5.71647 5.99651 5.71579 5.99685 5.71545 5.99719C5.68169 6.02141 5.64963 6.04732 5.61928 6.07427C5.3693 6.2973 5.22197 6.61856 5.22197 6.96096V11.7232H3.65321V7.18775L2.66284 7.75966C2.6018 7.79479 2.54451 7.83503 2.49164 7.88005C2.22632 8.10308 2.06876 8.43491 2.06876 8.78891V11.7232H0.5V8.15458C0.5 7.64541 0.733268 7.16967 1.12444 6.85796L4.24763 5.05491L6.71912 3.62802V3.60619L10.9306 1.17496L10.9428 1.16779L11.6706 0.747639C12.175 0.456395 12.7943 0.45128 13.3025 0.732974L14.0619 1.1712L16.5123 2.58616L18.3518 3.64814L18.7798 3.89505V3.89539L20.6218 4.95874L23.7085 6.74065C24.1992 7.04144 24.5 7.57652 24.5 8.15458Z" fill="#faa21b"/>
<path d="M21.3484 9.99502V11.7227H19.7797V10.6293C19.7797 10.2048 19.5529 9.81256 19.1852 9.6001L18.3514 9.11856L14.0615 6.64196L15.6235 5.73242L18.3514 7.30732L19.882 8.19094L20.519 8.55892C21.0323 8.85494 21.3484 9.40264 21.3484 9.99502Z" fill="#faa21b"/>
<path d="M24.5 17.8633V20.1411C24.5 20.6502 24.2667 21.126 23.8756 21.4377L20.7524 23.2407L18.2809 24.6676V24.6894L14.0694 27.1207L14.0572 27.1278L13.3294 27.548C12.825 27.8392 12.2057 27.8444 11.6975 27.5627L10.9381 27.1244L8.48772 25.7095L6.64818 24.6475L6.22018 24.4006V24.4002L4.37825 23.3369L1.29154 21.555C0.800793 21.2542 0.5 20.7191 0.5 20.1411V17.8633H2.06876V19.5067C2.06876 19.918 2.28123 20.2993 2.62874 20.5155L2.62976 20.5162C2.64068 20.523 2.65159 20.5295 2.66284 20.536L3.54885 21.0475L6.64818 22.8369L7.78144 23.4914L7.78212 23.491L8.71826 24.0312C9.0859 24.2437 9.53913 24.2437 9.90677 24.0312L10.9132 23.4501L12.4819 22.5447L18.2809 19.1964V21.008L14.0507 23.4501L12.4819 24.3559L10.8811 25.2801L10.8804 25.2805L11.9059 25.8725C11.9155 25.8779 11.925 25.8834 11.9349 25.8882L11.9407 25.8916C12.3019 26.0843 12.738 26.0781 13.0944 25.8725L14.1015 25.291L14.1076 25.2944L18.2809 22.885L19.1836 22.3639C19.2181 22.3441 19.2515 22.3223 19.2832 22.2995C19.2835 22.2991 19.2842 22.2988 19.2846 22.2984C19.3183 22.2742 19.3504 22.2483 19.3807 22.2214C19.6307 21.9983 19.778 21.6771 19.778 21.3347V17.8633H21.3468V21.1079L22.3372 20.536C22.3982 20.5008 22.4555 20.4606 22.5084 20.4156C22.7737 20.1926 22.9312 19.8607 22.9312 19.5067V17.8633H24.5Z" fill="#faa21b"/>
<path d="M10.9383 21.6532L9.37632 22.5627L6.64838 20.9878L5.11782 20.1042L4.48076 19.7362C3.96751 19.4402 3.65137 18.8925 3.65137 18.3001V17.8633H5.23684C5.29516 18.2094 5.50489 18.516 5.81455 18.6951L6.64838 19.1766L10.9383 21.6532Z" fill="#faa21b"/>
<path d="M15.5054 12.2004C15.5054 12.2772 15.5012 12.3497 15.4926 12.4222C15.4436 13.0219 15.182 13.5845 14.7549 14.0084C14.5184 14.2472 14.2367 14.4364 13.9263 14.5653C13.6159 14.6941 13.283 14.7599 12.9469 14.7589H11.6123C11.399 14.7589 11.22 14.9167 11.1901 15.1257L10.866 17.3771C10.8404 17.5434 10.721 17.6799 10.5633 17.7225C10.5249 17.7396 10.4865 17.7438 10.4439 17.7438H9.61237C9.55045 17.7442 9.48921 17.731 9.43291 17.7052C9.37662 17.6794 9.32663 17.6416 9.28643 17.5945C9.24624 17.5475 9.2168 17.4921 9.20018 17.4325C9.18357 17.3729 9.18016 17.3103 9.19022 17.2492L10.2093 11.1387C10.2586 10.8395 10.4126 10.5677 10.6438 10.3716C10.875 10.1756 11.1684 10.0681 11.4715 10.0684H13.3734C14.5503 10.0684 15.5054 11.0235 15.5054 12.2004Z" fill="#faa21b"/>
<path d="M16.3583 13.9064C16.3583 14.4948 16.1195 15.0278 15.7358 15.4159C15.3477 15.7996 14.8147 16.0384 14.2263 16.0384H13.3095C13.208 16.0381 13.1097 16.074 13.0324 16.1397C12.955 16.2054 12.9036 16.2965 12.8873 16.3966L12.5803 18.2387C12.5641 18.3389 12.5126 18.43 12.4353 18.4957C12.3579 18.5613 12.2596 18.5972 12.1581 18.5969H10.9087C10.8372 18.5982 10.7666 18.5806 10.7041 18.5458C10.6103 18.4946 10.67 18.3709 10.7723 18.3283C11.1561 18.2046 11.4375 17.8763 11.4972 17.4669L11.7701 15.5822C11.7872 15.4756 11.8767 15.3988 11.9791 15.3988H12.947C13.8041 15.3988 14.61 15.0662 15.207 14.465C15.5609 14.1153 15.8253 13.6846 15.9788 13.2198C16.0129 13.1132 16.1537 13.0919 16.2006 13.19C16.3029 13.4117 16.3583 13.6505 16.3583 13.9064Z" fill="#faa21b"/>
</svg>
